<?xml version="1.0" standalone="no"?>
<!DOCTYPE svg PUBLIC "-//W3C//DTD SVG 1.1//EN" "http://www.w3.org/Graphics/SVG/1.1/DTD/svg11.dtd" >
<svg xmlns="http://www.w3.org/2000/svg">
<metadata>Generated by IcoMoon</metadata>
<defs>
<font id="icomoon" horiz-adv-x="1024">
<font-face units-per-em="1024" ascent="960" descent="-64" />
<missing-glyph horiz-adv-x="1024" />
<glyph unicode="&#x20;" horiz-adv-x="512" d="" />
<glyph unicode="&#xe900;" glyph-name="booking" d="M616.722 785.308c-23.841 0-43.239-19.397-43.239-43.239s19.397-43.239 43.239-43.239 43.239 19.397 43.239 43.239-19.397 43.239-43.239 43.239zM217.261 722.466h-21.323c-0.082 0-0.162 0-0.244-0.002v-23.531c8.746 0.034 17.409 0.060 21.567 0.060 6.47 0 11.736 5.266 11.736 11.736 0 6.472-5.264 11.738-11.736 11.738zM216.741 778.904c0 3.532-2.872 6.404-6.404 6.404h-14.644v-12.846c6.084 0.022 11.686 0.038 14.644 0.038 3.532 0 6.404 2.874 6.404 6.404zM399.355 785.308c-23.841 0-43.239-19.397-43.239-43.239s19.397-43.239 43.239-43.239 43.239 19.397 43.239 43.239-19.397 43.239-43.239 43.239zM804.945 959.814h-585.893c-120.786 0-219.053-98.267-219.053-219.053 0-116.114 90.817-211.399 205.149-218.597 14.6 55.952 65.602 97.409 126.114 97.409 60.656 0 111.764-41.657 126.224-97.863h347.46c120.786 0 219.053 98.267 219.053 219.051 0 120.786-98.269 219.053-219.055 219.053zM217.261 648.994c-10.038 0-46.454-0.162-46.454-0.162-0.036 0-0.074 0-0.112 0-6.61 0-12.952 2.618-17.637 7.284-4.712 4.692-7.362 11.066-7.362 17.715v136.475c0 13.806 11.194 24.999 24.999 24.999h39.643c31.101 0 56.402-25.301 56.402-56.402 0-8.852-2.056-17.231-5.704-24.693 11.094-11.168 17.959-26.537 17.959-43.483 0-34.039-27.693-61.734-61.734-61.734zM399.355 648.832c-51.41 0-93.237 41.827-93.237 93.237s41.825 93.237 93.237 93.237 93.237-41.827 93.237-93.237-41.827-93.237-93.237-93.237zM616.722 648.832c-51.41 0-93.237 41.827-93.237 93.237s41.827 93.237 93.237 93.237 93.237-41.827 93.237-93.237-41.827-93.237-93.237-93.237zM871.295 659.86c-4.906-5.086-11.446-7.642-17.993-7.642-6.248 0-12.504 2.328-17.353 7.008l-35.903 34.637v-16.645c0-13.806-11.192-24.999-24.999-24.999s-24.999 11.194-24.999 24.999v136.473c0 13.806 11.192 24.999 24.999 24.999s24.999-11.194 24.999-24.999v-12.268l31.497 28.953c10.166 9.344 25.979 8.676 35.323-1.488s8.678-25.979-1.488-35.323l-49.5-45.5 54.784-52.856c9.938-9.586 10.22-25.413 0.634-35.349zM479.71-63.814c-120.866 0-219.197 98.331-219.197 219.197l0.432 333.885c0 38.779 31.543 70.306 70.318 70.306s70.318-31.545 70.318-70.318v-173.166l26.727 9.548c7.558 2.7 15.493 4.068 23.589 4.068 17.345 0 34.019-6.4 46.946-18.023l13.372-12.020 13.37 12.020c12.93 11.624 29.603 18.023 46.948 18.023s34.019-6.4 46.948-18.023l13.372-12.020 13.372 12.020c12.928 11.624 29.601 18.023 46.946 18.023 38.773 0 70.318-31.543 70.318-70.318v-104.007c0-120.866-98.331-219.197-219.197-219.197h-64.582z" />
<glyph unicode="&#xe901;" glyph-name="breakout" d="M413.302 741.93h-277.112c-37.88 0-68.698-30.818-68.698-68.698v-86.578c39.12-12.684 67.494-49.456 67.494-92.748v-85.498h347.014v264.824c0 37.88-30.818 68.698-68.698 68.698zM887.81 741.932h-277.112c-37.88 0-68.698-30.818-68.698-68.698v-264.824h347.014v85.496c0 43.292 28.372 80.064 67.494 92.75v86.578c0 37.88-30.818 68.698-68.698 68.698zM986.508 531.398c-20.674 0-37.494-16.82-37.494-37.492v-145.498h-874.028v145.498c0 20.672-16.82 37.492-37.492 37.492-20.674 0-37.494-16.82-37.494-37.492v-265.478h60.022v-74.36h60v74.36h783.958v-74.36h60v74.36h60.020v265.478c0 20.672-16.82 37.492-37.492 37.492z" />
<glyph unicode="&#xe902;" glyph-name="cafeteria" d="M273.408 276.736h-118.955l-43.691-233.387c-0.768-4.096-4.352-6.997-8.363-6.997-0.512 0-1.109 0.085-1.621 0.171-4.608 0.853-7.68 5.376-6.827 9.984l44.8 238.933-44.8 300.288c-0.768 4.693 2.475 8.96 7.168 9.728 4.608 0.683 8.96-2.56 9.643-7.253l44.032-294.4h61.781c16.725-11.008 36.523-17.067 56.832-17.067zM396.544 46.507c0.853-4.608-2.219-9.131-6.827-9.984-0.512-0.085-1.024-0.171-1.536-0.171-4.096 0-7.68 2.901-8.448 6.997l-43.691 233.387h17.323zM536.747 765.269c0-51.968-42.325-94.293-94.379-94.293s-94.379 42.325-94.379 94.293c0 52.053 42.325 94.379 94.379 94.379s94.379-42.24 94.379-94.379zM576.085 441.685c-0.512-0.939-1.024-1.877-1.707-2.816-6.827-10.837-18.517-17.067-30.891-17.067-4.096 0-8.192 0.683-12.203 2.048-9.216 3.157-21.077 7.68-34.56 13.568 0 0 0 0-0.085 0-30.635 13.483-69.632 34.475-103.68 64.853-13.312-60.075-17.323-115.456-18.432-135.851l75.093-4.352c3.584-0.256 6.656-2.645 7.68-6.059l78.763-256.427c6.656-21.675-4.864-44.544-26.197-52.139-4.608-1.707-9.387-2.475-14.080-2.475-16.299 0-31.829 9.557-38.741 25.259l-90.795 206.507h-92.843c-20.309 0-40.107 6.059-56.832 17.067-6.912 4.523-13.312 9.899-19.029 16.128-19.456 20.992-29.269 49.408-27.051 77.824 8.533 107.605 36.949 184.747 59.392 230.571 18.517 37.888 60.672 58.709 102.571 50.603 19.115-3.669 36.352-12.971 49.92-26.88 0.085-0.171 0.256-0.256 0.256-0.427 0.085-0.085 0.341-0.341 0.768-0.939 9.216-10.496 94.72-106.581 176.384-148.651 9.045-4.693 15.701-12.544 18.773-22.187 2.987-9.387 2.133-19.371-2.475-28.16zM930.133 430.336v-51.2c0-4.693-3.84-8.533-8.533-8.533h-30.72v-322.133c0-4.693-3.84-8.533-8.533-8.533h-281.771c-4.693 0-8.533 3.84-8.533 8.533v322.133h-90.624c-4.693 0-8.533 3.84-8.533 8.533v51.2c0 2.987 1.536 5.547 3.755 7.083h0.085c13.483-5.888 25.344-10.411 34.56-13.568 4.011-1.365 8.107-2.048 12.203-2.048 12.373 0 24.064 6.229 30.891 17.067h347.221c4.693 0 8.533-3.755 8.533-8.533zM859.051 671.317h-16.384l-7.595 26.453c-1.109 3.584-4.437 6.144-8.192 6.144h-47.189l-2.304 40.619c-0.171 3.499-2.56 6.571-5.973 7.68l-45.909 14.507c-4.523 1.451-9.301-1.109-10.752-5.547-1.451-4.523 1.109-9.301 5.547-10.752l40.277-12.715 1.963-33.792h-37.803c-3.84 0-7.168-2.56-8.192-6.144l-7.68-26.453h-16.299c-4.779 0-8.533-3.84-8.533-8.533v-37.205c0-4.693 3.755-8.533 8.533-8.533h8.96l2.133-28.928h144.299l2.133 28.928h8.96c4.693 0 8.533 3.84 8.533 8.533v37.205c0 4.693-3.84 8.533-8.533 8.533zM709.461 510.464h132.693l4.523 60.501h-141.739zM713.557 455.339c0.341-4.437 4.011-7.936 8.533-7.936h107.435c4.437 0 8.192 3.499 8.448 7.936l2.816 38.144h-130.048z" />
<glyph unicode="&#xe903;" glyph-name="call" d="M941.835 287.861c-62.693 0-124.251 9.805-182.584 29.083-28.584 9.749-63.723 0.805-81.168-17.112l-115.139-86.917c-133.528 71.277-215.779 153.501-286.083 286.027l84.36 112.139c21.917 21.888 29.779 53.861 20.36 83.861-19.36 58.64-29.195 120.168-29.195 182.888 0.003 45.309-36.859 82.171-82.165 82.171h-188.053c-45.307 0-82.168-36.861-82.168-82.168 0-519.333 422.501-941.832 941.835-941.832 45.307 0 82.168 36.861 82.168 82.168v187.528c-0.003 45.304-36.864 82.165-82.168 82.165z" />
<glyph unicode="&#xe904;" glyph-name="cement" d="M444.695 601.193h254.568v-114.255h-254.568zM938.249 85.355l14.683 112.87c21.518 165.403 21.518 333.138 0 498.541l-14.24 109.454c1.335 5.669 7.282 26.511 33.262 92.358 6.368 16.128 2.638 34.549-9.497 46.929-12.133 12.374-30.466 16.467-46.71 10.421-84.597-31.472-119.769-40.514-127.296-40.909h-422.229c-7.695 0.403-43.77 9.72-130.682 42.17-15.661 5.849-33.004 2.419-45.261-8.946-12.257-11.369-16.984-28.409-12.326-44.475 18.048-62.247 21.977-81.139 22.821-86.138l-15.727-120.868c-8.365-64.31-13.47-133.921-15.156-203.875 8.122-4.564 15.998-9.642 23.571-15.256 32.398-24.020 57.446-56.027 73.312-93.437 55.458-2.842 107.57-25.453 147.842-64.386 37.179-35.946 60.81-82.43 67.94-132.839 95.766-23.893 166.744-107.937 173.786-207.002h161.992c4.893-1.471 24.801-8.425 92.849-39.877 5.955-2.754 12.263-4.095 18.511-4.095 10.981 0 21.773 4.145 30.147 12.067 13.141 12.434 17.321 31.33 10.65 48.145-25.116 63.315-30.923 83.579-32.242 89.147zM384.561 426.804v234.524h374.837v-234.524zM485.786 293.841v60.134h172.385v-60.134zM450.496 132.016l-25 3.476-0.908 25.222c-3.307 91.769-77.874 163.655-169.755 163.655-2.536 0-5.113-0.058-7.661-0.17l-23.023-1.028-6.976 21.965c-22.404 70.549-84.188 116.135-157.405 116.135h-10.006l-0.776-507.519h547.847v10.022c-0.004 84.312-62.914 156.642-146.337 168.242zM163.178 160.209c-16.856 0-29.337 13.777-30.067 30.067-0.728 16.238 14.34 30.067 30.067 30.067 16.856 0 29.337-13.777 30.067-30.067 0.728-16.238-14.34-30.067-30.067-30.067zM298.815 32.59c-16.856 0-29.337 13.777-30.067 30.067-0.728 16.238 14.34 30.067 30.067 30.067 16.856 0 29.337-13.777 30.067-30.067 0.726-16.236-14.34-30.067-30.067-30.067z" />
<glyph unicode="&#xe905;" glyph-name="close" d="M605.814 447.162l398.725 398.737c25.948 25.936 25.948 67.871 0 93.808-25.936 25.936-67.871 25.936-93.808 0l-398.737-398.737-398.725 398.737c-25.948 25.936-67.871 25.936-93.808 0-25.948-25.936-25.948-67.871 0-93.808l398.725-398.737-398.725-398.737c-25.948-25.936-25.948-67.871 0-93.808 12.926-12.938 29.921-19.437 46.904-19.437s33.966 6.499 46.904 19.437l398.725 398.737 398.737-398.737c12.938-12.938 29.921-19.437 46.904-19.437s33.966 6.499 46.904 19.437c25.948 25.936 25.948 67.871 0 93.808z" />
<glyph unicode="&#xe906;" glyph-name="coffee" d="M844 538v60h-784v-150c0-139.002 73.338-262.922 183.116-332h415.768c26.96 16.966 53.658 37.188 75.674 60h79.442c115.782 0 210 94.218 210 210v152h-180zM964 386c0-82.706-67.294-150-150-150h-32.652c39.226 60.696 62.652 134.474 62.652 212v30h120v-92zM320.136 960l-33.282-49.922c11.924-7.94 18.75-20.712 18.75-35.040s-6.826-27.1-18.75-35.040c-28.476-18.984-45.468-50.742-45.468-84.96s16.992-65.976 45.468-84.96l33.28 49.922c-11.924 7.94-18.75 20.712-18.75 35.040s6.826 27.1 18.75 35.040c28.478 18.982 45.47 50.74 45.47 84.96 0 34.218-16.992 65.976-45.468 84.96zM470.136 960l-33.282-49.922c11.924-7.94 18.75-20.712 18.75-35.040s-6.826-27.1-18.75-35.040c-28.476-18.984-45.468-50.742-45.468-84.96s16.992-65.976 45.468-84.96l33.28 49.922c-11.924 7.94-18.75 20.712-18.75 35.040s6.826 27.1 18.75 35.040c28.478 18.982 45.47 50.74 45.47 84.96 0 34.218-16.992 65.976-45.468 84.96zM620.136 960l-33.282-49.922c11.924-7.94 18.75-20.712 18.75-35.040s-6.826-27.1-18.75-35.040c-28.476-18.984-45.468-50.742-45.468-84.96s16.992-65.976 45.468-84.96l33.28 49.922c-11.924 7.94-18.75 20.712-18.75 35.040s6.826 27.1 18.75 35.040c28.478 18.982 45.47 50.74 45.47 84.96 0 34.218-16.992 65.976-45.468 84.96zM0 56c0-66.274 53.726-120 120-120h664c66.274 0 120 53.726 120 120h-904z" />
<glyph unicode="&#xe907;" glyph-name="conference" d="M451.491 744.339c9.309-18.618 29.479-52.752 60.509-52.752s51.2 34.133 60.509 52.752c7.758 4.655 13.964 12.412 17.067 23.273 4.655 15.515 1.552 35.685-10.861 46.545-9.309 34.133-35.685 57.406-66.715 57.406s-57.406-23.273-66.715-55.855c-12.412-10.861-13.964-31.030-10.861-46.545 3.103-12.412 9.309-20.17 17.067-24.824zM671.806 618.667c-3.103 20.17-20.17 38.788-43.442 44.994-20.17 6.206-27.927 10.861-52.752 12.412-4.655 0-10.861-1.552-13.964-6.206s-4.655-9.309-3.103-13.964c13.964-44.994-21.721-91.539-46.545-117.915-29.479 31.030-57.406 83.782-46.545 117.915 1.552 4.655 0 10.861-3.103 13.964-3.103 4.655-7.758 6.206-13.964 6.206-24.824-1.552-32.582-6.206-54.303-12.412-23.273-6.206-40.339-23.273-43.442-44.994l-21.721-125.673h361.503zM698.182 452.655c-1.552 6.206-7.758 10.861-12.412 10.861h-349.091c-6.206 0-10.861-4.655-12.412-10.861l-130.327-406.497c-3.103-9.309 3.103-20.17 12.412-20.17h608.194c9.309 0 15.515 10.861 12.412 20.17zM848.679 415.418c-21.721-13.964-34.133-37.236-34.133-62.061 0-41.891 38.788-77.576 85.333-77.576s85.333 34.133 85.333 77.576c0 41.891-38.788 77.576-85.333 77.576-18.618 0-37.236-4.655-51.2-15.515zM899.879 268.024c-43.442 0-76.024-17.067-93.091-49.648l52.752-193.939h133.43c7.758 0 15.515 7.758 15.515 15.515v130.327c0 54.303-49.648 97.745-108.606 97.745zM749.382 398.352l44.994-141.188c7.758 7.758 15.515 15.515 24.824 21.721-21.721 20.17-35.685 46.545-35.685 77.576 0 27.927 10.861 54.303 31.030 74.473-26.376-4.655-49.648-15.515-65.164-32.582zM830.061 438.691c48.097 0 85.333 35.685 85.333 77.576s-38.788 77.576-85.333 77.576c-18.618 0-37.236-6.206-51.2-15.515-21.721-13.964-34.133-37.236-34.133-62.061 0-43.442 38.788-77.576 85.333-77.576zM124.121 278.885c46.545 0 85.333 34.133 85.333 76.024 0 24.824-12.412 46.545-34.133 62.061-13.964 9.309-32.582 15.515-51.2 15.515-46.545 0-85.333-34.133-85.333-77.576 0-40.339 38.788-76.024 85.333-76.024zM217.212 221.479c-17.067 31.030-51.2 49.648-93.091 49.648-60.509 0-108.606-43.442-108.606-97.745v-130.327c0-7.758 7.758-15.515 15.515-15.515h133.43c-3.103 9.309-3.103 18.618 0 29.479zM204.8 278.885c9.309-6.206 17.067-12.412 24.824-21.721l44.994 141.188c-15.515 17.067-38.788 27.927-66.715 31.030 20.17-20.17 31.030-46.545 31.030-74.473 1.552-29.479-12.412-55.855-34.133-76.024zM193.939 440.242c46.545 0 85.333 34.133 85.333 76.024 0 44.994-40.339 76.024-85.333 76.024-46.545 0-85.333-34.133-85.333-76.024 0-40.339 37.236-76.024 85.333-76.024z" />
<glyph unicode="&#xe908;" glyph-name="customer-service" d="M511.996 819.688c90.636 0 160.964-75.456 168.306-165.168l0.342-4.176c-32.49-1.148-65.744-2.116-97.792 3.828-39.68 7.358-74.816 25.020-93.878 62.38-4.326 8.48-16.602 8.868-21.256 0.246-24.766-45.884-76.516-57.406-124.29-64.6l0.492 5.102c8.52 88.51 78.446 162.388 168.076 162.388zM299.26 654.542c7.678 118.654 100.164 212.67 212.736 212.67 112.582 0 205.048-94.014 212.746-212.67h32.056c-7.812 136.31-114.618 244.668-244.802 244.668-130.192 0-236.982-108.358-244.792-244.668zM587.698 202.496c0-60.242-58.99-99.986-109.206-73.176-26.74 14.276-42.21 43.236-42.21 73.176v116.804l5.536-2.304c44.988-18.726 95.354-18.738 140.342 0l5.538 2.306zM746.264 254.658h-134.566v-52.162c0-56.586-43.218-105.606-99.702-105.606-56.476 0-99.722 49.022-99.722 105.606v52.162h-134.538c-83.076 0-145.698-73.114-145.698-156.286v-101.582h137.478v98.436c0 6.634 5.37 12.004 12.004 12.004s12.004-5.37 12.004-12.004v-98.436h436.954v98.436c0 6.634 5.37 12.004 12.004 12.004 6.626 0 11.994-5.38 11.994-12.004v-98.436h137.486v101.582c0 83.174-62.616 156.286-145.698 156.286zM704.98 626.542h48.304c12.984 0 22.294-12.196 22.294-24.594v-57.248c0-12.402-9.304-24.594-22.294-24.594h-48.304zM319.020 520.106h-48.322c-12.98 0-22.276 12.204-22.276 24.594v57.248c0 12.386 9.298 24.594 22.276 24.594h48.322zM481.062 684.374l-3.054 3.934-3.182-3.832c-31.984-38.52-84.506-49.944-131.808-56.55v-119.826c0-65.41 33.368-128.452 91.070-160.718 82.578-46.18 182.582-11.29 226.17 73.864l2.98 5.822h-114.682c-6.626 0-11.994 5.38-11.994 12.004s5.368 12.004 11.994 12.004h123.868c5.694 19.494 8.558 36.6 8.558 57.024v118.172l-37.96-0.794c-58.516 0.004-123.62 9.508-161.96 58.896z" />
<glyph unicode="&#xe909;" glyph-name="customer-success" d="M241.832 408.446c56.056 0 101.498-45.442 101.498-101.498s-45.442-101.498-101.498-101.498c-56.056 0-101.498 45.442-101.498 101.498s45.442 101.498 101.498 101.498zM558.534 744.884c10.14 10.196 26.626 10.242 36.822 0.102s10.242-26.626 0.102-36.822l-86.964-87.782c-10.072-10.128-26.404-10.238-36.614-0.302l-43.028 41.938c-10.308 10.026-10.536 26.512-0.51 36.82s26.512 10.536 36.82 0.51l24.55-23.932zM719.498 559.958c38.094 13.188 55.544 66.898 32.48 99.96-9.704 13.908-9.706 31.524-0.002 45.432 23.068 33.060 5.616 86.772-32.476 99.962-16.026 5.548-26.382 19.798-26.706 36.754-0.77 40.304-46.46 73.502-85.030 61.782-16.226-4.932-32.98 0.51-43.208 14.038-24.312 32.154-80.79 32.156-105.106 0.002-10.228-13.528-26.982-18.974-43.208-14.042-38.57 11.722-84.262-21.474-85.032-61.778-0.324-16.956-10.676-31.208-26.704-36.756-38.094-13.186-55.548-66.9-32.482-99.96 9.704-13.908 9.706-31.524 0.002-45.432-23.068-33.060-5.616-86.774 32.478-99.962 16.026-5.548 26.382-19.798 26.706-36.754 0.77-40.304 46.46-73.502 85.030-61.78 16.226 4.932 32.98-0.51 43.21-14.038 24.314-32.156 80.792-32.156 105.106-0.002 10.23 13.528 26.982 18.972 43.208 14.040 38.57-11.722 84.262 21.474 85.032 61.778 0.322 16.958 10.674 31.208 26.702 36.756zM512 828.134c-80.358 0-145.5-65.144-145.5-145.5s65.142-145.5 145.5-145.5 145.5 65.144 145.5 145.5c0 80.358-65.142 145.5-145.5 145.5zM310.536-30.852c7.81 104.114 95.442 186.884 201.466 186.884s193.654-82.77 201.466-186.884c0.618-8.226-5.806-15.148-14.054-15.148h-374.824c-8.248 0-14.672 6.922-14.054 15.148zM512 384.956c-60.304 0-109.192-48.886-109.192-109.192 0-60.304 48.886-109.19 109.192-109.19 60.304 0 109.192 48.886 109.192 109.19 0 60.306-48.886 109.192-109.192 109.192zM651.032 141.96c43.582-32.33 75.74-79.45 88.704-134.108h216.64c7.668 0 13.638 6.434 13.064 14.080-7.26 96.778-88.718 173.716-187.272 173.716-50.892 0-97.224-20.518-131.136-53.688zM54.56 21.932c-0.574-7.646 5.396-14.080 13.066-14.080h216.642c12.962 54.656 45.12 101.778 88.702 134.106-33.912 33.172-80.244 53.69-131.136 53.69-98.556 0-180.014-76.938-187.274-173.716zM782.168 408.446c-56.056 0-101.498-45.442-101.498-101.498s45.442-101.498 101.498-101.498 101.498 45.442 101.498 101.498-45.442 101.498-101.498 101.498z" />
<glyph unicode="&#xe90a;" glyph-name="delivery-car" d="M949.231 363.432l-45.689 22.844c-4.328 2.162-9.101 3.287-13.936 3.287h-104.909c-10.765 0-19.48 8.71-19.48 19.48 0 10.765 8.711 19.48 19.48 19.48h79.046c2.898 0 4.782 3.050 3.485 5.638l-50.232 100.446c-3.306 6.612-10.061 10.788-17.453 10.788h-112.238v-350.61h40.925c9.056 44.396 48.393 77.912 95.423 77.912s86.366-33.515 95.423-77.912h21.445c10.747 0 19.48 8.733 19.48 19.48v131.746c0 7.373-4.166 14.12-10.769 17.421zM336.699 175.305c0-32.273-26.163-58.436-58.436-58.436s-58.436 26.163-58.436 58.436c0 32.273 26.163 58.436 58.436 58.436s58.436-26.163 58.436-58.436zM356.175 584.348c3.768 0 7.531-1.085 10.805-3.27l86.586-57.732v255.785h-194.783v-255.784l86.586 57.732c3.274 2.182 7.042 3.269 10.805 3.269zM882.088 175.305c0-32.273-26.163-58.436-58.436-58.436s-58.436 26.163-58.436 58.436c0 32.273 26.163 58.436 58.436 58.436s58.436-26.163 58.436-58.436zM589.914 779.13h-97.392v-292.174c0-7.19-3.956-13.788-10.289-17.175-2.871-1.543-6.028-2.301-9.186-2.301-3.786 0-7.554 1.104-10.805 3.27l-106.066 70.703-106.066-70.703c-5.952-3.974-13.676-4.378-19.991-0.969-6.333 3.386-10.29 9.985-10.29 17.175v292.174h-97.392c-32.272 0-58.436-26.163-58.436-58.436v-467.478c0-32.273 26.163-58.436 58.436-58.436h60.405c9.056 44.396 48.393 77.912 95.422 77.912s86.366-33.515 95.422-77.912h274.664v525.914c0 32.274-26.163 58.436-58.436 58.436z" />
<glyph unicode="&#xe90b;" glyph-name="efficiency" d="M628.993 401.907c-0.016 0-0.036 0-0.055 0-8.808 0-15.949-7.141-15.949-15.949 0-0.019 0-0.039 0-0.058v0.003-318.649h149.002v318.649c0 0.016 0 0.036 0 0.055 0 8.808-7.141 15.949-15.949 15.949-0.019 0-0.039 0-0.058 0h0.003zM788.398 449.92v-382.667h149.002v382.667c0 0.016 0 0.036 0 0.055 0 8.809-7.141 15.949-15.949 15.949-0.019 0-0.039 0-0.058 0h-116.99c-0.017 0-0.036 0-0.056 0-8.808 0-15.949-7.14-15.949-15.949 0-0.020 0-0.039 0-0.059v0.003zM278.014 273.871c-0.016 0-0.036 0-0.055 0-8.809 0-15.949-7.141-15.949-15.949 0-0.020 0-0.039 0-0.058v0.003-190.613h149.002v190.613c0 0.016 0 0.036 0 0.055 0 8.809-7.141 15.949-15.949 15.949-0.019 0-0.039 0-0.058 0h0.003zM102.604 211.614c-0.016 0-0.036 0-0.055 0-8.809 0-15.949-7.141-15.949-15.949 0-0.019 0-0.039 0-0.058v0.003-128.356h149.002v128.356c0 0.017 0 0.036 0 0.056 0 8.808-7.14 15.949-15.949 15.949-0.020 0-0.039 0-0.059 0h0.003zM453.583 337.888c-0.046 0-0.101 0.001-0.156 0.001-8.753 0-15.849-7.096-15.849-15.849 0-0.055 0-0.11 0.001-0.165v0.008-254.631h148.843v254.631c0 0.046 0.001 0.101 0.001 0.155 0 8.753-7.096 15.849-15.849 15.849-0.055 0-0.11 0-0.165-0.001h0.008zM944.122 35.244h-864.243c-8.731-0.142-15.754-7.253-15.754-16.005s7.023-15.862 15.74-16.004h864.257c0.015 0 0.033 0 0.051 0 8.839 0 16.005 7.166 16.005 16.005s-7.166 16.005-16.005 16.005c-0.018 0-0.036 0-0.053 0h0.003zM134.134 355.814c-7.138-1.713-12.361-8.040-12.361-15.587 0-8.841 7.167-16.008 16.008-16.008 0.519 0 1.032 0.025 1.538 0.073l-0.065-0.005c254.133 23.969 482.783 116.939 671.652 259.746l-3.304-2.394 20.646-21.607c2.863-3.067 6.931-4.979 11.444-4.979 1.393 0 2.743 0.182 4.029 0.524l-0.109-0.025c5.648 1.327 10.041 5.613 11.499 11.095l0.024 0.108 46.573 165.485c0.339 1.238 0.534 2.658 0.534 4.125 0 8.941-7.248 16.19-16.19 16.19-1.374 0-2.708-0.171-3.981-0.493l0.112 0.024-166.287-43.692c-6.844-1.955-11.769-8.153-11.769-15.502 0-4.29 1.679-8.188 4.415-11.073l-0.007 0.007 13.924-14.404c-70.891-65.353-150.082-123.643-235.283-172.662l-6.386-3.387c-99.855-57.747-215.453-104.353-337.751-133.751l-8.906-1.808zM474.39 692.712c-0.25 110.299-89.722 199.617-200.056 199.617s-199.807-89.319-200.056-199.595v-0.024c10.921-265.409 389.23-265.332 400.112 0.002zM258.33 727.439l-0.001 99.068c0 0.015 0 0.033 0 0.051 0 8.839 7.166 16.005 16.005 16.005s16.005-7.166 16.005-16.005c0-0.018 0-0.036 0-0.053v0.003-99.068c8.313-3.878 14.847-10.412 18.627-18.492l0.098-0.234h67.059c8.737-0.134 15.769-7.248 15.769-16.004s-7.032-15.871-15.756-16.004h-67.072c-6.185-13.329-19.455-22.407-34.844-22.407-21.15 0-38.296 17.146-38.296 38.296 0 15.39 9.078 28.66 22.172 34.746l0.236 0.099zM282.234 692.731c-0.095 4.291-3.596 7.733-7.901 7.733s-7.805-3.441-7.901-7.723v-0.009c-0.001-0.051-0.002-0.111-0.002-0.171 0-4.365 3.538-7.903 7.903-7.903s7.903 3.538 7.903 7.903c0 0.060-0.001 0.119-0.002 0.179v-0.009z" />
<glyph unicode="&#xe90c;" glyph-name="fast-delivery" d="M730 745.969c88.781-20.602 122.742-72.516 165.32-143.969h-165.32zM211.156 596c17.383 0 30-8.391 30-28 0-16.539-13.383-29.953-29.914-30h-181.242c-16.57 0-30-13.438-30-30 0-16.57 13.43-30 30-30h270c16.727 0 30.117-13.422 30.117-30 0-16.57-13.43-30-30-30h-270.117c-16.57 0-30-13.43-30-30s13.43-30 30-30h66v-90c0-16.57 13.43-30 30-30h60.305c10.75-52.953 57.539-92 112.695-92s101.945 39.047 112.695 92h304.609c10.75-52.953 57.539-92 112.695-92s101.945 39.047 112.695 92h52.305c16.57 0 30 13.43 30 30v180c0 88.023-92.844 93.867-92.93 94h-231.070c-16.57 0-30 13.43-30 30v180h-544c-16.57 0-30-13.43-30-30v-66h-36c-16.57 0-30-13.43-30-30s13.43-30 30-30zM867.891 299.891c21.477-21.477 21.477-56.313 0-77.789-34.547-34.547-93.891-9.969-93.891 38.898 0 48.859 59.344 73.438 93.891 38.891zM337.891 299.891c21.477-21.477 21.477-56.313 0-77.789-34.547-34.547-93.891-9.969-93.891 38.898 0 48.859 59.344 73.438 93.891 38.891z" />
<glyph unicode="&#xe90d;" glyph-name="left-arrow" d="M413.363 447.784l383.076 383.093c10.548 10.523 16.351 24.593 16.351 39.595 0 15.010-5.803 29.072-16.351 39.611l-33.567 33.551c-10.531 10.556-24.609 16.367-39.611 16.367s-29.063-5.811-39.603-16.367l-456.113-456.105c-10.581-10.573-16.376-24.701-16.334-39.72-0.042-15.085 5.744-29.196 16.334-39.778l455.688-455.663c10.54-10.556 24.601-16.367 39.611-16.367 15.002 0 29.063 5.811 39.611 16.367l33.559 33.551c21.837 21.837 21.837 57.386 0 79.214l-382.651 382.651z" />
<glyph unicode="&#xe90e;" glyph-name="like" d="M909.144 562.93h-231.344c-19.428 0-33.269 18.734-27.572 37.308 22.669 73.907 38.549 195.282-56.464 284.839-15.541 14.774-36.455 22.832-58.712 22.832-33.194 0-60.439-27.053-60.439-60.438 0-84.038-20.146-167.885-58.327-242.714l-42.019-82.311c-4.54-8.812-21.898-15.858-40.119-20.558-13.888-3.582-23.39-16.412-23.39-30.755v-402.959c0-17.631 14.292-31.923 31.923-31.923v0c23.621 0 46.136-9.244 63.52-25.237 15.592-14.344 36.37-22.922 58.435-22.922h353.247c45.99 0 86.075 34.773 89.006 80.67 1.353 21.185-4.935 40.724-16.319 56.324 37.223 9.401 64.66 43.362 64.66 83.462 0 22.64-8.634 43.17-23.216 58.521 26.67 14.581 44.898 42.978 44.898 75.596 0 22.448-8.826 42.978-23.216 58.328 28.637 15.979 47.623 47.891 44.337 83.845-4.099 44.85-43.851 78.092-88.888 78.092zM98.754-6.727h151.17c10.553 0 19.187 8.442 19.187 19.187v531.283c0 10.553-8.634 19.187-19.187 19.187h-205.085c-5.373 0-10.553-2.302-14.198-6.332s-5.373-9.401-4.989-14.774l54.107-531.283c0.959-9.784 9.209-17.268 18.995-17.268z" />
<glyph unicode="&#xe90f;" glyph-name="meeting" d="M543.030-25.212h-15.515v383.224h164.461c9.309 0 15.515 6.206 15.515 15.515s-6.206 15.515-15.515 15.515h-359.952c-7.758 0-15.515-6.206-15.515-15.515s7.758-15.515 15.515-15.515h164.461v-383.224h-15.515c-7.758 0-15.515-7.758-15.515-15.515 0-9.309 7.758-15.515 15.515-15.515h62.061c7.758 0 15.515 6.206 15.515 15.515s-7.758 15.515-15.515 15.515zM899.879 631.079c55.855 0 100.848 44.994 100.848 100.848s-44.994 100.848-100.848 100.848-100.848-44.994-100.848-100.848 44.994-100.848 100.848-100.848zM965.042 584.533h-251.345l-54.303 54.303c-20.17 21.721-54.303 20.17-76.024 0s-21.721-55.855 0-76.024l71.37-71.37c10.861-9.309 23.273-15.515 38.788-15.515h82.23v-198.594h-141.188c-27.927 0-51.2-23.273-51.2-51.2v-266.861c0-9.309 7.758-15.515 15.515-15.515h105.503c9.309 0 15.515 6.206 15.515 15.515v181.527h246.691c27.927 0 51.2 23.273 51.2 51.2v342.885c-1.552 27.927-24.824 49.648-52.752 49.648zM390.982 277.333h-142.739v257.552c0 27.927-23.273 51.2-51.2 51.2h-139.636c-27.927 0-51.2-23.273-51.2-51.2v-342.885c0-27.927 23.273-51.2 51.2-51.2h246.691v-181.527c0-9.309 6.206-15.515 15.515-15.515h105.503c9.309 0 15.515 6.206 15.515 15.515v266.861c1.552 27.927-21.721 51.2-49.648 51.2zM124.121 631.079c55.855 0 100.848 44.994 100.848 100.848s-44.994 100.848-100.848 100.848-100.848-44.994-100.848-100.848c1.552-55.855 46.545-100.848 100.848-100.848zM954.182-25.212h-49.648v134.982h-31.030v-134.982h-49.648c-7.758 0-15.515-7.758-15.515-15.515 0-9.309 7.758-15.515 15.515-15.515h130.327c7.758 0 15.515 6.206 15.515 15.515s-6.206 15.515-15.515 15.515zM201.697-25.212h-49.648v134.982h-31.030v-134.982h-49.648c-9.309 0-15.515-7.758-15.515-15.515 0-9.309 6.206-15.515 15.515-15.515h130.327c9.309 0 15.515 6.206 15.515 15.515s-6.206 15.515-15.515 15.515zM311.855 693.139h40.339v-82.23c0-12.412 15.515-20.17 24.824-12.412l114.812 94.642h215.661c7.758 0 15.515 6.206 15.515 15.515v228.073c0 9.309-7.758 15.515-15.515 15.515h-395.636c-9.309 0-15.515-6.206-15.515-15.515v-228.073c0-9.309 6.206-15.515 15.515-15.515zM390.982 874.667h235.83c9.309 0 15.515-6.206 15.515-15.515s-6.206-15.515-15.515-15.515h-235.83c-9.309 0-15.515 6.206-15.515 15.515s7.758 15.515 15.515 15.515zM390.982 800.194h235.83c9.309 0 15.515-6.206 15.515-15.515s-6.206-15.515-15.515-15.515h-235.83c-9.309 0-15.515 6.206-15.515 15.515 0 7.758 7.758 15.515 15.515 15.515z" />
<glyph unicode="&#xe910;" glyph-name="menu" d="M981.333 406.219h-938.667c-23.552 0-42.667 19.115-42.667 42.667s19.115 42.667 42.667 42.667h938.667c23.552 0 42.667-19.115 42.667-42.667s-19.115-42.667-42.667-42.667zM981.333 733.333h-938.667c-23.552 0-42.667 19.115-42.667 42.667s19.115 42.667 42.667 42.667h938.667c23.552 0 42.667-19.115 42.667-42.667s-19.115-42.667-42.667-42.667zM981.333 79.115h-938.667c-23.552 0-42.667 19.115-42.667 42.667s19.115 42.667 42.667 42.667h938.667c23.552 0 42.667-19.115 42.667-42.667s-19.115-42.667-42.667-42.667z" />
<glyph unicode="&#xe911;" glyph-name="pantry" d="M972.48 860.48h-366.293c-22.576-0.061-40.853-18.376-40.853-40.96 0 0 0 0 0 0v0-208c0.060-22.538 18.315-40.793 40.848-40.853h366.299c22.538 0.060 40.793 18.315 40.853 40.848v208.006c0 0 0 0 0 0 0 22.584-18.278 40.899-40.848 40.96h-0.006zM666.56 783.147h-39.893c-0.412-0.034-0.893-0.053-1.377-0.053-9.838 0-17.813 7.975-17.813 17.813s7.975 17.813 17.813 17.813c0.485 0 0.965-0.019 1.44-0.057l-0.063 0.004h39.893c0.412 0.034 0.893 0.053 1.377 0.053 9.838 0 17.813-7.975 17.813-17.813s-7.975-17.813-17.813-17.813c-0.485 0-0.965 0.019-1.44 0.057l0.063-0.004zM972.48 549.333h-366.293c-11.091 0.010-21.496 2.936-30.492 8.053l0.306-0.16c-6.598-7.202-10.647-16.833-10.667-27.409v-503.151h448v503.147c-0.020 10.581-4.069 20.212-10.694 27.444l0.028-0.030c-8.691-4.957-19.096-7.884-30.184-7.893h-0.003zM666.56 485.333h-39.893c-0.412-0.034-0.893-0.053-1.377-0.053-9.838 0-17.813 7.975-17.813 17.813s7.975 17.813 17.813 17.813c0.485 0 0.965-0.019 1.44-0.057l-0.063 0.004h39.893c0.412 0.034 0.893 0.053 1.377 0.053 9.838 0 17.813-7.975 17.813-17.813s-7.975-17.813-17.813-17.813c-0.485 0-0.965 0.019-1.44 0.057l0.063-0.004zM565.333 5.333h77.333v-58.667h-77.333zM936 5.333h77.333v-58.667h-77.333zM664 5.333h250.667v-58.667h-250.667zM972.48 884.693c-0.298 12.199-10.258 21.973-22.5 21.973-0.002 0-0.004 0-0.007 0h-59.733c-0.037 0-0.081 0-0.124 0-6.494 0-12.336-2.79-16.393-7.236l-0.016-0.017-16.64-17.6h115.413zM10.667 285.333h533.333v-280h-533.333zM10.667 362.667h533.333v-56h-533.333zM34.667-16h509.333v-37.333h-509.333zM458.667 949.333h-448v-357.333h448zM416 634.667h-362.667v272h362.667zM198.187 885.333h-123.52v-229.333h123.52zM170.667 758.187c0-5.891-4.776-10.667-10.667-10.667s-10.667 4.776-10.667 10.667v0 24.96c0 5.891 4.776 10.667 10.667 10.667s10.667-4.776 10.667-10.667v0zM394.667 885.333h-123.52v-229.333h123.52zM320 758.187c0-5.891-4.776-10.667-10.667-10.667s-10.667 4.776-10.667 10.667v0 24.96c0 5.891 4.776 10.667 10.667 10.667s10.667-4.776 10.667-10.667v0zM219.52 885.333h30.293v-229.333h-30.293zM271.147 384v125.333h-237.76v-125.333zM173.333 466.667h55.147v-61.333h-55.147zM76.053 466.667h75.947v-61.333h-75.947z" />
<glyph unicode="&#xe912;" glyph-name="printer" d="M659.912 160.332h-295.824c-18.85 0-34.134-15.282-34.134-34.134s15.282-34.134 34.134-34.134h295.822c18.85 0 34.134 15.282 34.134 34.134s-15.282 34.134-34.132 34.134zM659.912 267.988h-295.824c-18.85 0-34.134-15.282-34.134-34.134s15.282-34.134 34.134-34.134h295.822c18.85 0 34.134 15.282 34.134 34.134s-15.282 34.134-34.132 34.134zM944.356 692.186h-108.606v197.55c0 18.85-15.282 34.134-34.134 34.134h-579.232c-18.85 0-34.134-15.282-34.134-34.134v-197.55h-108.606c-43.916 0-79.644-35.73-79.644-79.646v-343.404c0-43.916 35.728-79.644 79.644-79.644h108.612v-183.228c0-18.85 15.282-34.134 34.134-34.134h579.22c18.85 0 34.134 15.282 34.134 34.134v183.228h108.612c43.916 0 79.644 35.728 79.644 79.644v343.404c0 43.914-35.728 79.646-79.644 79.646zM256.516 855.602h510.966v-163.416h-510.966v163.416zM767.476 40.398h-510.952c0 6.67 0 271.006 0 279.256h510.954c-0.002-8.458-0.002-272.842-0.002-279.256zM801.616 491.756h-86.886c-18.85 0-34.134 15.282-34.134 34.134s15.282 34.134 34.134 34.134h86.886c18.85 0 34.134-15.282 34.134-34.134s-15.282-34.134-34.134-34.134z" />
<glyph unicode="&#xe913;" glyph-name="right-arrow" d="M796.462 487.956l-455.693 455.685c-10.54 10.548-24.609 16.359-39.611 16.359s-29.071-5.811-39.611-16.359l-33.559-33.55c-21.837-21.862-21.837-57.393 0-79.222l382.657-382.657-383.081-383.081c-10.54-10.548-16.359-24.609-16.359-39.603 0-15.010 5.819-29.071 16.359-39.628l33.559-33.542c10.548-10.548 24.609-16.359 39.611-16.359s29.071 5.811 39.611 16.359l456.118 456.101c10.565 10.581 16.367 24.709 16.334 39.728 0.033 15.077-5.769 29.196-16.334 39.769z" />
<glyph unicode="&#xe914;" glyph-name="stack" d="M992-64h-170.667c-17.664 0-32 14.336-32 32v53.333h-128v-53.333c0-17.664-14.336-32-32-32h-234.667c-17.664 0-32 14.336-32 32v53.333h-128v-53.333c0-17.664-14.336-32-32-32h-170.667c-17.664 0-32 14.336-32 32v138.667h1024v-138.667c0-17.664-14.336-32-32-32zM682.667 960h-128v-85.333c0-23.552-19.115-42.667-42.667-42.667s-42.667 19.115-42.667 42.667v85.333h-128c-23.552 0-42.667-19.115-42.667-42.667v-256c0-23.552 19.115-42.667 42.667-42.667h341.333c23.552 0 42.667 19.115 42.667 42.667v256c0 23.552-19.115 42.667-42.667 42.667zM426.667 533.333h-128v-85.333c0-23.552-19.115-42.667-42.667-42.667s-42.667 19.115-42.667 42.667v85.333h-128c-23.552 0-42.667-19.115-42.667-42.667v-256c0-23.552 19.115-42.667 42.667-42.667h341.333c23.552 0 42.667 19.115 42.667 42.667v256c0 23.552-19.115 42.667-42.667 42.667zM938.667 533.333h-128v-85.333c0-23.552-19.115-42.667-42.667-42.667s-42.667 19.115-42.667 42.667v85.333h-128c-23.552 0-42.667-19.115-42.667-42.667v-256c0-23.552 19.115-42.667 42.667-42.667h341.333c23.552 0 42.667 19.115 42.667 42.667v256c0 23.552-19.115 42.667-42.667 42.667z" />
<glyph unicode="&#xe915;" glyph-name="staff" d="M617.94 730.971c47.347-29.686 80.548-79.921 86.592-138.233 19.309-9.022 40.74-14.211 63.462-14.211 82.95 0 150.182 67.232 150.182 150.169 0 82.95-67.232 150.182-150.182 150.182-82.158-0.026-148.801-66.056-150.054-147.907zM519.553 423.477c82.95 0 150.182 67.244 150.182 150.182s-67.244 150.169-150.182 150.169c-82.937 0-150.207-67.244-150.207-150.182s67.27-150.169 150.207-150.169zM583.257 413.24h-127.435c-106.029 0-192.289-86.273-192.289-192.302v-155.843l0.396-2.441 10.735-3.361c101.186-31.616 189.094-42.159 261.45-42.159 141.326 0 223.24 40.293 228.288 42.862l10.032 5.073h1.073v155.868c0.038 106.029-86.221 192.302-192.251 192.302zM831.724 568.278h-126.451c-1.367-50.593-22.964-96.151-57.123-128.917 94.247-28.025 163.204-115.422 163.204-218.653v-48.024c124.853 4.575 196.8 39.961 201.541 42.338l10.032 5.086h1.073v155.894c0 106.017-86.26 192.276-192.276 192.276zM256.032 578.502c29.379 0 56.714 8.575 79.87 23.182 7.361 48.012 33.098 89.966 69.864 118.54 0.153 2.811 0.422 5.597 0.422 8.434 0 82.95-67.244 150.182-150.156 150.182-82.963 0-150.182-67.232-150.182-150.182 0-82.912 67.219-150.156 150.182-150.156zM390.904 439.361c-33.993 32.6-55.513 77.915-57.085 128.201-4.69 0.345-9.329 0.716-14.108 0.716h-127.422c-106.029 0-192.289-86.26-192.289-192.276v-155.868l0.396-2.402 10.735-3.386c81.174-25.341 153.619-37.021 216.544-40.702v47.066c0.026 103.231 68.957 190.602 163.229 218.653z" />
<glyph unicode="&#xe916;" glyph-name="tick" d="M512 960c-282.306 0-512-229.694-512-512s229.694-512 512-512 512 229.694 512 512-229.694 512-512 512zM798.155 582.737l-327.218-324.652c-19.248-19.248-50.045-20.531-70.576-1.283l-173.233 157.835c-20.531 19.248-21.815 51.328-3.85 71.86 19.248 20.531 51.328 21.815 71.86 2.566l137.303-125.754 292.571 292.571c20.531 20.531 52.612 20.531 73.143 0s20.531-52.612 0-73.143z" />
<glyph unicode="&#xe917;" glyph-name="wi-fi" d="M634.046 182.31c0-66.069-53.56-119.629-119.629-119.629s-119.629 53.56-119.629 119.629c0 66.069 53.56 119.629 119.629 119.629s119.629-53.56 119.629-119.629zM800.324 470.535c-1.775 1.825-3.649 3.452-5.474 5.128l-5.375 5.079c-0.888 0.937-1.874 1.627-3.008 2.515-154.69 140.537-391.434 134.965-539.072-12.673l-17.308-17.358-23.965-23.965c-29.192-29.192-29.044-76.778 0.197-106.019 29.291-29.34 76.876-29.39 106.019-0.197l41.323 41.323c93.889 93.84 246.606 93.84 340.446 0.049l29.833-28.896c28.896-28.896 76.038-28.847 105.083 0.247 14.054 14.004 21.796 32.693 21.845 52.566 0.049 19.774-7.594 38.463-21.648 52.418l-28.896 29.784zM1004.128 618.42l-24.853 24.853c-0.099 0.099-0.148 0.247-0.345 0.296l-19.626 19.725c-3.452 3.402-7.199 6.361-11.144 8.925-252.129 221.359-635.624 214.554-879.715-20.267-1.183-1.085-2.515-1.825-3.698-3.008l-44.873-44.923c-26.628-26.579-26.48-69.825 0.296-96.601 26.727-26.727 69.973-26.924 96.601-0.247l44.873 44.824c0.296 0.394 0.542 0.74 0.838 0.986 197.393 190.687 510.521 191.871 709.492 3.896l35.307-35.356c26.579-26.579 69.924-26.48 96.65 0.247 26.677 26.776 26.776 70.071 0.197 96.65z" />
<glyph unicode="&#xe918;" glyph-name="zoom" d="M579.6 559.6h-98.6v98.6c0 22.6-18.2 40.8-40.8 40.8s-40.8-18.2-40.8-40.8v-98.6h-98.6c-22.6 0-40.8-18.2-40.8-40.8s18.2-40.8 40.8-40.8h98.6v-98.6c0-22.6 18.2-40.8 40.8-40.8s40.8 18.2 40.8 40.8v98.6h98.6c22.6 0 40.8 18.2 40.8 40.8s-18.4 40.8-40.8 40.8zM440.4 182.6c-185.8 0-336.4 150.4-336.4 336.2s150.6 336.2 336.4 336.2 336.2-150.6 336.2-336.2-150.6-336.2-336.2-336.2zM990 26.6l-226.6 226.6c59.4 72.2 95.2 164.8 95.2 265.6 0 231-187.2 418.4-418.4 418.4s-418.2-187.4-418.2-418.4 187.2-418.4 418.4-418.4c100.8 0 193.2 35.6 265.4 95l226.6-226.6c10.4-10.6 42.2-15.8 57.8 0 15.8 16 15.8 41.8-0.2 57.8z" />
</font>
</defs>
</svg>
