<svg id="Capa_1" enable-background="new 0 0 512.017 512.017" height="512" viewBox="0 0 512.017 512.017" width="512" xmlns="http://www.w3.org/2000/svg"><g><g fill="#1d1d1b"><g><g><path d="m308.371 87.349c-11.921 0-21.62 9.699-21.62 21.62s9.699 21.62 21.62 21.62 21.62-9.699 21.62-21.62-9.699-21.62-21.62-21.62z"/><path d="m108.634 118.771h-10.662c-.041 0-.081 0-.122.001v11.766c4.373-.017 8.705-.03 10.784-.03 3.235 0 5.868-2.633 5.868-5.868 0-3.236-2.632-5.869-5.868-5.869z"/><path d="m108.374 90.551c0-1.766-1.436-3.202-3.202-3.202h-7.322v6.423c3.042-.011 5.843-.019 7.322-.019 1.766 0 3.202-1.437 3.202-3.202z"/><path d="m199.684 87.349c-11.921 0-21.62 9.699-21.62 21.62s9.699 21.62 21.62 21.62 21.62-9.699 21.62-21.62-9.699-21.62-21.62-21.62z"/></g><path d="m402.486.093h-292.956c-60.395 0-109.53 49.135-109.53 109.53 0 58.059 45.41 105.703 102.578 109.302 7.3-27.977 32.802-48.706 63.059-48.706 30.329 0 55.884 20.829 63.114 48.933h173.736c60.395 0 109.53-49.135 109.53-109.529 0-60.395-49.136-109.53-109.531-109.53zm-293.852 155.415c-5.019 0-23.228.081-23.228.081-.018 0-.037 0-.056 0-3.305 0-6.476-1.309-8.819-3.642-2.356-2.346-3.681-5.533-3.681-8.858v-68.24c0-6.903 5.597-12.5 12.5-12.5h19.822c15.551 0 28.202 12.651 28.202 28.202 0 4.426-1.028 8.616-2.852 12.347 5.547 5.584 8.98 13.269 8.98 21.742 0 17.02-13.847 30.868-30.868 30.868zm91.05.081c-25.706 0-46.62-20.914-46.62-46.62s20.913-46.62 46.62-46.62 46.62 20.914 46.62 46.62-20.914 46.62-46.62 46.62zm108.687 0c-25.706 0-46.62-20.914-46.62-46.62s20.914-46.62 46.62-46.62 46.62 20.914 46.62 46.62-20.914 46.62-46.62 46.62zm127.291-5.514c-2.453 2.543-5.723 3.821-8.997 3.821-3.124 0-6.252-1.164-8.677-3.504l-17.952-17.319v8.323c0 6.903-5.596 12.5-12.5 12.5s-12.5-5.597-12.5-12.5v-68.239c0-6.903 5.596-12.5 12.5-12.5s12.5 5.597 12.5 12.5v6.134l15.749-14.477c5.083-4.672 12.99-4.338 17.662.744s4.339 12.99-.744 17.662l-24.751 22.751 27.393 26.429c4.969 4.793 5.11 12.707.317 17.675z"/></g><path d="m239.863 511.924c-60.435 0-109.602-49.167-109.602-109.602l.216-166.948c0-19.39 15.772-35.154 35.16-35.154s35.16 15.773 35.16 35.16v86.586l13.364-4.774c3.779-1.35 7.747-2.034 11.795-2.034 8.673 0 17.01 3.2 23.474 9.012l6.686 6.01 6.685-6.01c6.465-5.812 14.802-9.012 23.475-9.012s17.01 3.2 23.475 9.012l6.686 6.01 6.686-6.01c6.464-5.812 14.801-9.012 23.474-9.012 19.387 0 35.16 15.772 35.16 35.16v52.005c0 60.435-49.167 109.602-109.602 109.602h-32.292z"/></g></g></svg>