<svg id="Capa_1" enable-background="new 0 0 510.857 510.857" height="512" viewBox="0 0 510.857 510.857" width="512" xmlns="http://www.w3.org/2000/svg"><g id="XMLID_488_"><path id="XMLID_495_" d="m221.851 179.003h127v57h-127z"/><path id="XMLID_510_" d="m468.077 436.346 7.325-56.309c10.735-82.517 10.735-166.197 0-248.714l-7.104-54.605c.666-2.828 3.633-13.226 16.594-46.076 3.177-8.046 1.316-17.236-4.738-23.412-6.053-6.173-15.199-8.215-23.303-5.199-42.204 15.701-59.751 20.212-63.506 20.409h-210.643c-3.839-.201-21.836-4.849-65.195-21.038-7.813-2.918-16.465-1.207-22.58 4.463-6.115 5.672-8.473 14.173-6.149 22.188 9.004 31.054 10.964 40.479 11.385 42.973l-7.846 60.299c-4.173 32.083-6.72 66.811-7.561 101.71 4.052 2.277 7.981 4.81 11.759 7.611 16.163 11.983 28.659 27.951 36.574 46.614 27.667 1.418 53.665 12.698 73.756 32.121 18.548 17.933 30.337 41.123 33.894 66.271 47.776 11.92 83.186 53.848 86.699 103.27h80.815c2.441.734 12.373 4.203 46.321 19.894 2.971 1.374 6.118 2.043 9.235 2.043 5.478 0 10.862-2.068 15.04-6.02 6.556-6.203 8.641-15.63 5.313-24.019-12.53-31.587-15.427-41.696-16.085-44.474zm-276.226-170.343v-117h187v117zm50.5 66.333v-30h86v30z"/><path id="XMLID_533_" d="m224.745 413.068-12.472-1.734-.453-12.583c-1.65-45.782-38.85-81.645-84.688-81.645-1.265 0-2.551.029-3.822.085l-11.486.513-3.48-10.958c-11.177-35.196-42-57.938-78.527-57.938h-4.992l-.387 253.193h273.312v-5c-.002-42.062-31.387-78.146-73.005-83.933zm-143.338-14.065c-8.409 0-14.636-6.873-15-15-.363-8.101 7.154-15 15-15 8.409 0 14.636 6.873 15 15 .363 8.101-7.154 15-15 15zm67.667 63.667c-8.409 0-14.636-6.873-15-15-.363-8.101 7.154-15 15-15 8.409 0 14.636 6.873 15 15 .362 8.1-7.154 15-15 15z"/></g></svg>