<svg id="Layer_1" enable-background="new 0 0 512 512" viewBox="0 0 512 512" xmlns="http://www.w3.org/2000/svg"><path clip-rule="evenodd" d="m120.916 275.777c-28.028 0-50.749 22.721-50.749 50.749s22.721 50.749 50.749 50.749 50.749-22.721 50.749-50.749-22.721-50.749-50.749-50.749zm158.351-168.219c5.07-5.098 13.313-5.121 18.411-.051s5.121 13.313.051 18.411l-43.482 43.891c-5.036 5.064-13.202 5.119-18.307.151l-21.514-20.969c-5.154-5.013-5.268-13.256-.255-18.41s13.256-5.268 18.41-.255l12.275 11.966zm80.482 92.463c19.047-6.594 27.772-33.449 16.24-49.98-4.852-6.954-4.853-15.762-.001-22.716 11.534-16.53 2.808-43.386-16.238-49.981-8.013-2.774-13.191-9.899-13.353-18.377-.385-20.152-23.23-36.751-42.515-30.891-8.113 2.466-16.49-.255-21.604-7.019-12.156-16.077-40.395-16.078-52.553-.001-5.114 6.764-13.491 9.487-21.604 7.021-19.285-5.861-42.131 10.737-42.516 30.889-.162 8.478-5.338 15.604-13.352 18.378-19.047 6.593-27.774 33.45-16.241 49.98 4.852 6.954 4.853 15.762.001 22.716-11.534 16.53-2.808 43.387 16.239 49.981 8.013 2.774 13.191 9.899 13.353 18.377.385 20.152 23.23 36.751 42.515 30.89 8.113-2.466 16.49.255 21.605 7.019 12.157 16.078 40.396 16.078 52.553.001 5.115-6.764 13.491-9.486 21.604-7.02 19.285 5.861 42.131-10.737 42.516-30.889.161-8.479 5.337-15.604 13.351-18.378zm-103.749-134.088c-40.179 0-72.75 32.572-72.75 72.75s32.571 72.75 72.75 72.75 72.75-32.572 72.75-72.75c0-40.179-32.571-72.75-72.75-72.75zm-100.732 429.493c3.905-52.057 47.721-93.442 100.733-93.442s96.827 41.385 100.733 93.442c.309 4.113-2.903 7.574-7.027 7.574h-187.412c-4.124 0-7.336-3.461-7.027-7.574zm100.732-207.904c-30.152 0-54.596 24.443-54.596 54.596 0 30.152 24.443 54.595 54.596 54.595 30.152 0 54.596-24.443 54.596-54.595 0-30.153-24.443-54.596-54.596-54.596zm69.516 121.498c21.791 16.165 37.87 39.725 44.352 67.054h108.32c3.834 0 6.819-3.217 6.532-7.04-3.63-48.389-44.359-86.858-93.636-86.858-25.446 0-48.612 10.259-65.568 26.844zm-298.236 60.014c-.287 3.823 2.698 7.04 6.533 7.04h108.321c6.481-27.328 22.56-50.889 44.351-67.053-16.956-16.586-40.122-26.845-65.568-26.845-49.278 0-90.007 38.469-93.637 86.858zm363.804-193.257c-28.028 0-50.749 22.721-50.749 50.749s22.721 50.749 50.749 50.749 50.749-22.721 50.749-50.749-22.721-50.749-50.749-50.749z" fill-rule="evenodd"/></svg>