<svg id="Layer_1" enable-background="new 0 0 512 512" viewBox="0 0 512 512" xmlns="http://www.w3.org/2000/svg"><path clip-rule="evenodd" d="m255.998 70.156c45.318 0 80.482 37.728 84.153 82.584l.171 2.088c-16.245.574-32.872 1.058-48.896-1.914-19.84-3.679-37.408-12.51-46.939-31.19-2.163-4.24-8.301-4.434-10.628-.123-12.383 22.942-38.258 28.703-62.145 32.3l.246-2.551c4.26-44.255 39.223-81.194 84.038-81.194zm-106.368 82.573c3.839-59.327 50.082-106.335 106.368-106.335 56.291 0 102.524 47.007 106.373 106.335h16.028c-3.906-68.155-57.309-122.334-122.401-122.334-65.096 0-118.491 54.179-122.396 122.334zm144.219 226.023c0 30.121-29.495 49.993-54.603 36.588-13.37-7.138-21.105-21.618-21.105-36.588v-58.402l2.768 1.152c22.494 9.363 47.677 9.369 70.171 0l2.769-1.153zm79.283-26.081h-67.283v26.081c0 28.293-21.609 52.803-49.851 52.803-28.238 0-49.861-24.511-49.861-52.803v-26.081h-67.269c-41.538 0-72.849 36.557-72.849 78.143v50.791h68.739v-49.218c0-3.317 2.685-6.002 6.002-6.002s6.002 2.685 6.002 6.002v49.218h218.477v-49.218c0-3.317 2.685-6.002 6.002-6.002 3.313 0 5.997 2.69 5.997 6.002v49.218h68.743v-50.791c0-41.587-31.308-78.143-72.849-78.143zm-20.642-185.942h24.152c6.492 0 11.147 6.098 11.147 12.297v28.624c0 6.201-4.652 12.297-11.147 12.297h-24.152zm-192.98 53.218h-24.161c-6.49 0-11.138-6.102-11.138-12.297v-28.624c0-6.193 4.649-12.297 11.138-12.297h24.161zm81.021-82.134-1.527-1.967-1.591 1.916c-15.992 19.26-42.253 24.972-65.904 28.275v59.913c0 32.705 16.684 64.226 45.535 80.359 41.289 23.09 91.291 5.645 113.085-36.932l1.49-2.911h-57.341c-3.313 0-5.997-2.69-5.997-6.002s2.684-6.002 5.997-6.002h61.934c2.847-9.747 4.279-18.3 4.279-28.512v-59.086l-18.98.397c-29.258-.002-61.81-4.754-80.98-29.448z" fill-rule="evenodd"/></svg>