<svg id="glipy" height="512" viewBox="0 0 64 64" width="512" xmlns="http://www.w3.org/2000/svg"><path d="m39.31206 34.88082a.99682.99682 0 0 0 -1.00028 1.00028v19.91559h9.31262v-19.91559a.99682.99682 0 0 0 -1.00028-1.00028z"/><path d="m49.27489 31.88v23.91669h9.31262v-23.91669a.99683.99683 0 0 0 -1.00028-1.00028h-7.31206a.99679.99679 0 0 0 -1.00028 1.00028z"/><path d="m17.37588 42.88307a.99683.99683 0 0 0 -1.00028 1.00029v11.91333h9.31262v-11.91333a.99683.99683 0 0 0 -1.00028-1.00029z"/><path d="m6.41277 46.77412a.99683.99683 0 0 0 -1.00029 1.00029v8.02228h9.31263v-8.02228a.99679.99679 0 0 0 -1.00028-1.00029z"/><path d="m28.34894 38.882a.99057.99057 0 0 0 -1.00028 1.00028v15.91441h9.30267v-15.91446a.99056.99056 0 0 0 -1.00028-1.00023z"/><path d="m59.00761 57.79725h-54.01517a1.00041 1.00041 0 0 0 -.00006 2.00057h54.01523a1.00029 1.00029 0 1 0 0-2.00057z"/><path d="m8.38335 37.76163a1.00052 1.00052 0 0 0 .3201 1.97047 82.13205 82.13205 0 0 0 41.77173-16.08449l1.2904 1.35042a.97762.97762 0 0 0 .96023.28.96722.96722 0 0 0 .72024-.70021l2.91079-10.34282a1.01186 1.01186 0 0 0 -1.22031-1.24034l-10.39295 2.73073a1.00588 1.00588 0 0 0 -.46009 1.6605l.87024.90022a82.19571 82.19571 0 0 1 -15.10429 11.0031 81.62535 81.62535 0 0 1 -21.66609 8.47242z"/><path d="m29.64936 16.70553a12.50353 12.50353 0 0 0 -25.007.00012c.68257 16.58805 24.32688 16.58323 25.007-.00012zm-13.50375-2.17048-.00006-6.19174a1.00029 1.00029 0 1 1 2.00057 0v6.19174a2.37979 2.37979 0 0 1 1.17031 1.17032h4.19118a1.00039 1.00039 0 0 1 0 2.00056h-4.19118a2.39352 2.39352 0 1 1 -3.17082-3.17088z"/><path d="m17.63963 16.70431a.49394.49394 0 0 0 -.98765-.00007.49394.49394 0 1 0 .98765.00007z"/></svg>