<svg id="Layer_1" enable-background="new 0 0 100 100" viewBox="0 0 100 100" xmlns="http://www.w3.org/2000/svg"><path d="m88.7835464 38.776413-22.5921402.000019c-1.8972549 0-3.2489014-1.8294678-2.6925583-3.6433182 2.2137604-7.2175255 3.7645569-19.0704861-5.5140953-27.8162956-1.517704-1.4427958-3.5601006-2.229723-5.7335548-2.229723-3.2416039 0-5.9022446 2.6418848-5.9022446 5.9021273 0 8.206872-1.9673729 16.394989-5.6960449 23.7025146l-4.1034355 8.0381889c-.4433174.8605347-2.1385117 1.5486412-3.9178352 2.007576-1.3562851.349823-2.2841511 1.602726-2.2841511 3.0033989v39.3514824c0 1.7217407 1.3957424 3.117485 3.1174831 3.1175003h.0000076c2.3067741.0000153 4.5054817.9027634 6.2031097 2.4645767 1.5226402 1.4008255 3.5517654 2.2384415 5.706501 2.2384415h34.4968033c4.4912338 0 8.4057312-3.3958206 8.6920013-7.8779221.1321335-2.0688477-.4819565-3.9769592-1.5936432-5.5004196 3.6350098-.9180984 6.3144073-4.2346039 6.3144073-8.1506042 0-2.210968-.8431931-4.2158508-2.2672348-5.7149124 2.6044846-1.4239273 4.3845367-4.1971016 4.3845367-7.3824348 0-2.192215-.8619461-4.1971016-2.2672348-5.6960487 2.7965393-1.560421 4.6506729-4.6768494 4.3297501-8.187973-.4003218-4.3798514-4.2823179-7.626174-8.6804274-7.626174z"/><path d="m9.6439753 94.4069672h14.7627306c1.0305195 0 1.8737125-.82444 1.8737125-1.8737183v-51.8831177c0-1.0305176-.8431931-1.8737106-1.8737125-1.8737106h-20.0278593c-.5246944 0-1.0305192.2248344-1.3865292.6183548s-.5246944.9181023-.4871836 1.4427948l5.283884 51.8831177c.0936631.9554977.8993462 1.6862793 1.8549575 1.6862793z"/></svg>