<svg enable-background="new 0 0 24 24" height="512" viewBox="0 0 24 24" width="512" xmlns="http://www.w3.org/2000/svg"><path d="m23.25 24h-4c-.414 0-.75-.336-.75-.75v-1.25h-3v1.25c0 .414-.336.75-.75.75h-5.5c-.414 0-.75-.336-.75-.75v-1.25h-3v1.25c0 .414-.336.75-.75.75h-4c-.414 0-.75-.336-.75-.75v-3.25h24v3.25c0 .414-.336.75-.75.75z"/><path d="m16 0h-3v2c0 .552-.448 1-1 1s-1-.448-1-1v-2h-3c-.552 0-1 .448-1 1v6c0 .552.448 1 1 1h8c.552 0 1-.448 1-1v-6c0-.552-.448-1-1-1z"/><path d="m10 10h-3v2c0 .552-.448 1-1 1s-1-.448-1-1v-2h-3c-.552 0-1 .448-1 1v6c0 .552.448 1 1 1h8c.552 0 1-.448 1-1v-6c0-.552-.448-1-1-1z"/><path d="m22 10h-3v2c0 .552-.448 1-1 1s-1-.448-1-1v-2h-3c-.552 0-1 .448-1 1v6c0 .552.448 1 1 1h8c.552 0 1-.448 1-1v-6c0-.552-.448-1-1-1z"/></svg>